<svg xmlns="http://www.w3.org/2000/svg" xmlns:xlink="http://www.w3.org/1999/xlink" id="Layer_1" x="0" y="0" version="1.1" viewBox="0 0 26 26" xml:space="preserve" style="enable-background:new 0 0 26 26"><style type="text/css">.st0{fill:#fff}</style><path d="M24.1,0H1.9C0.8,0,0,0.8,0,1.9v22.2c0,1,0.9,1.9,1.9,1.9h22.2c1.1,0,1.9-0.8,1.9-1.9V1.9C26,0.8,25.1,0,24.1,0z M8,22H4V10h4V22z M6,8.4C4.7,8.4,3.6,7.3,3.6,6S4.7,3.6,6,3.6S8.4,4.7,8.4,6S7.3,8.4,6,8.4z M22,22h-4v-6c0-1.6-0.4-3.2-2-3.2	s-2,1.6-2,3.2v6h-4V10h4v1.4h0.2c0.5-1,1.8-1.8,3.3-1.8C21.2,9.6,22,12,22,15V22z" class="st0"/></svg>