<svg xmlns="http://www.w3.org/2000/svg" xmlns:svg="http://www.w3.org/2000/svg" xmlns:xlink="http://www.w3.org/1999/xlink" id="Layer_1" x="0" y="0" version="1.1" viewBox="0 0 500 500" xml:space="preserve" style="enable-background:new 0 0 500 500"><style type="text/css">.st0{fill:#9ba3af}</style><g><path d="M121.6,532.8C110.5,573,102.3,602.2,91.8,640c-2.5,8.8,2.7,14,11.5,11.5c39.5-11,70.9-19.8,107.2-29.8l0,0 l302.6-302.6l-89-89L121.6,532.8L121.6,532.8z M441.3,213.1l12.9,12.9l63.3,63.3l12.9,12.9l55.5-55.5c7.2-7.2,7.3-18.8,0.2-25.9 l-63.3-63.3c-7.1-7.1-18.7-7-25.9,0.2L441.3,213.1L441.3,213.1z M154.8,529l260.5-260.5l14.5,14.5L169.3,543.5L154.8,529z M138.1,548.7l56,56l-50.2,13.5l-19.3-19.3L138.1,548.7L138.1,548.7z" class="st0" transform="translate(-91.214475,-152.15558)"/></g></svg>