<svg xmlns="http://www.w3.org/2000/svg" xmlns:svg="http://www.w3.org/2000/svg" xmlns:xlink="http://www.w3.org/1999/xlink" id="Layer_1" x="0" y="0" version="1.1" viewBox="0 0 88 88" xml:space="preserve" style="enable-background:new 0 0 88 88"><g><path d="M44,952.4c-24.3,0-44,19.7-44,44c0,24.3,19.7,44,44,44s44-19.7,44-44C88,972.1,68.3,952.4,44,952.4z M44,956.4 c22.1,0,40,17.9,40,40c0,22.1-17.9,40-40,40s-40-17.9-40-40C4,974.2,21.9,956.4,44,956.4z M53.8,972.3c-0.4,0-0.9,0.2-1.2,0.5 l-24,22c-0.8,0.7-0.9,2-0.1,2.8c0,0.1,0.1,0.1,0.1,0.1l24,22c0.8,0.7,2.1,0.7,2.8-0.1c0.7-0.8,0.7-2.1-0.1-2.8c0,0,0,0,0,0 L33,996.4l22.4-20.5c0.8-0.7,0.9-2,0.2-2.8C55.1,972.5,54.5,972.3,53.8,972.3z" transform="translate(0,-952.36218)"/></g></svg>