<svg xmlns="http://www.w3.org/2000/svg" xmlns:xlink="http://www.w3.org/1999/xlink" id="Layer_1" x="0" y="0" version="1.1" viewBox="0 0 92.6 95" xml:space="preserve" style="enable-background:new 0 0 92.6 95"><style type="text/css">.st0{fill:#aab5c7}</style><g><rect width="16.5" height="12.9" x="8.9" y="42.5" class="st0"/><rect width="16.5" height="12.9" x="28.4" y="42.5" class="st0"/><rect width="16.5" height="12.9" x="47.9" y="42.5" class="st0"/><rect width="16.5" height="12.9" x="67.4" y="42.5" class="st0"/><rect width="16.5" height="12.9" x="8.9" y="58.1" class="st0"/><rect width="16.5" height="12.9" x="28.4" y="58.1" class="st0"/><rect width="16.5" height="12.9" x="47.9" y="58.1" class="st0"/><rect width="16.5" height="12.9" x="67.4" y="58.1" class="st0"/><rect width="16.5" height="12.9" x="8.9" y="73.8" class="st0"/><rect width="16.5" height="12.9" x="28.4" y="73.8" class="st0"/><rect width="16.5" height="12.9" x="47.9" y="73.8" class="st0"/><rect width="16.5" height="12.9" x="67.4" y="73.8" class="st0"/><path d="M78.8,8.3v11.9H65V8.3H27.7v11.9H13.9V8.3H0V95h92.6V8.3H78.8z M88,90.3H4.8V39H88V90.3z" class="st0"/><rect width="6.7" height="16.7" x="17.5" class="st0"/><rect width="6.7" height="16.7" x="68.6" class="st0"/></g></svg>