<svg xmlns="http://www.w3.org/2000/svg" xmlns:xlink="http://www.w3.org/1999/xlink" id="Layer_1" x="0" y="0" version="1.1" viewBox="0 0 60 60" xml:space="preserve" style="enable-background:new 0 0 60 60"><g><path d="M59,0H1C0.4,0,0,0.4,0,1v58c0,0.6,0.4,1,1,1h58c0.6,0,1-0.4,1-1V1C60,0.4,59.6,0,59,0z M58,2v6H2V2H58z M2,58V10h56v48H2z"/><rect width="2" height="2" x="4" y="4"/><rect width="2" height="2" x="8" y="4"/><rect width="2" height="2" x="12" y="4"/><rect width="2" height="2" x="54" y="4"/><path d="M55,12H5c-0.6,0-1,0.4-1,1v42c0,0.6,0.4,1,1,1h50c0.6,0,1-0.4,1-1V13C56,12.4,55.6,12,55,12z M54,54H6V14h48V54z"/><rect width="8" height="2" x="8" y="16"/><rect width="2" height="2" x="18" y="16"/><rect width="2" height="2" x="22" y="16"/><path d="M9,34h42c0.6,0,1-0.4,1-1V21c0-0.6-0.4-1-1-1H9c-0.6,0-1,0.4-1,1v12C8,33.6,8.4,34,9,34z M10,22h40v10H10V22z"/><path d="M9,48h10c0.6,0,1-0.4,1-1V37c0-0.6-0.4-1-1-1H9c-0.6,0-1,0.4-1,1v10C8,47.6,8.4,48,9,48z M10,38h8v8h-8V38z"/><path d="M51,36H41c-0.6,0-1,0.4-1,1v10c0,0.6,0.4,1,1,1h10c0.6,0,1-0.4,1-1V37C52,36.4,51.6,36,51,36z M50,46h-8v-8h8V46z"/><path d="M35,36H25c-0.6,0-1,0.4-1,1v10c0,0.6,0.4,1,1,1h10c0.6,0,1-0.4,1-1V37C36,36.4,35.6,36,35,36z M34,46h-8v-8h8V46z"/><rect width="2" height="2" x="9" y="50"/><rect width="2" height="2" x="13" y="50"/><rect width="2" height="2" x="25" y="50"/><rect width="2" height="2" x="29" y="50"/><rect width="2" height="2" x="41" y="50"/><rect width="2" height="2" x="45" y="50"/></g></svg>